# xmcd
#
# Track frame offsets: 
#        150
#        18522
#        38285
#        60660
#        82127
#        101752
#        119065
#        135320
#        154177
#        170920
#
# Disc length: 2545 seconds
#
# Revision: 0
# Processed by: cddbd v1.5.2PL0 Copyright (c) Steve Scherf et al.
# Submitted via: ExactAudioCopy v1.0b3
#
DISCID=8309ef0a
DTITLE=李千那 - 查某囡仔
DYEAR=2018
DGENRE=Vocal
TTITLE0=曖昧林檎 
TTITLE1=嘟嘟好 
TTITLE2=查某囡仔 
TTITLE3=舊衫櫥 
TTITLE4=那A安呢
TTITLE5=愛的太超過 
TTITLE6=Jajambo 
TTITLE7=憨憨
TTITLE8=膨紗衫 
TTITLE9=掛念 
EXTD=
EXTT0=
EXTT1=
EXTT2=
EXTT3=
EXTT4=
EXTT5=
EXTT6=
EXTT7=
EXTT8=
EXTT9=
PLAYORDER=
